<svg id="Layer_1" data-name="Layer 1" xmlns="http://www.w3.org/2000/svg" viewBox="0 0 50 12"><defs><style>.cls-1{fill:#ff7a00;}.cls-2{fill:#fff;}</style></defs><title>-</title><polygon class="cls-1" points="50 12 0 12 5 0 50 0 50 12"/><rect class="cls-2" x="32" y="3" width="1" height="7"/><path class="cls-2" d="M11,3H9v7h1V7h1a2,2,0,0,0,0-4Zm0,3H10V4h1a1,1,0,0,1,0,2Z"/><polygon class="cls-2" points="24 4 24 3 20 3 20 10 24 10 24 9 21 9 21 7 24 7 24 6 21 6 21 4 24 4"/><polygon class="cls-2" points="39 4 39 3 35 3 35 10 39 10 39 9 36 9 36 7 39 7 39 6 36 6 36 4 39 4"/><path class="cls-2" d="M14,3v7h1V7.63L17.17,10h1.35L15.78,7h.38A1.85,1.85,0,0,0,18,5.16V4.84A1.85,1.85,0,0,0,16.16,3H14Zm3,1.84v.32a.85.85,0,0,1-.84.84H15V4h1.16A.85.85,0,0,1,17,4.84Z"/><polygon class="cls-2" points="29.5 3 27.79 7.82 26.08 3 25.01 3 27.51 10 28.08 10 30.56 3 29.5 3"/><polygon class="cls-2" points="45.37 3 44.72 6.75 43.84 3 42.59 3 41.6 7.05 40.69 3 39.66 3 41.25 10 41.91 10 43.21 4.7 44.46 10 45.17 10 46.39 3 45.37 3"/></svg>