<svg id="Layer_1" data-name="Layer 1" xmlns="http://www.w3.org/2000/svg" viewBox="0 0 50 12"><defs><style>.cls-1{fill:#ff7a00;}.cls-2{fill:#fff;}</style></defs><title>Preview_themeStudio</title><polygon class="cls-1" points="50 12 0 12 5 0 50 0 50 12"/><path class="cls-2" d="M9.48,6.83V9.11H8.67V3.43h2.18a2,2,0,0,1,1.41.47,1.59,1.59,0,0,1,.5,1.23,1.6,1.6,0,0,1-.5,1.24,2,2,0,0,1-1.41.46Zm0-.61h1.41a1.1,1.1,0,0,0,0-2.2H9.48Z"/><path class="cls-2" d="M15.42,6.65V9.11h-.75V3.43h2a2.15,2.15,0,0,1,1.43.41A1.48,1.48,0,0,1,18.59,5a1.29,1.29,0,0,1-.23.76,1.57,1.57,0,0,1-.67.52,1.19,1.19,0,0,1,.67.49,1.58,1.58,0,0,1,.21.85V8.2a2,2,0,0,0,.06.48.66.66,0,0,0,.2.34v.09H18a.64.64,0,0,1-.2-.39,4.69,4.69,0,0,1,0-.53V7.67a1,1,0,0,0-.27-.74,1,1,0,0,0-.72-.28Zm0-.61h1.25a1.43,1.43,0,0,0,.94-.25A1,1,0,0,0,17.9,5a1,1,0,0,0-.28-.74A1.25,1.25,0,0,0,16.75,4H15.46Z"/><path class="cls-2" d="M24.14,6.51H21.53v2h3v.61H20.76V3.43h3.73V4h-3V5.88H24.1Z"/><path class="cls-2" d="M27.94,7.7l.13.45h0l.13-.45,1.47-4.27h.83L28.39,9.12h-.66L25.67,3.43h.84Z"/><path class="cls-2" d="M32.94,9.11h-.77V3.43h.77Z"/><path class="cls-2" d="M38.58,6.51H36v2h3v.61H35.2V3.43h3.73V4h-3V5.88h2.61Z"/><path class="cls-2" d="M41.84,7.15l.11.71h0l.15-.71,1-3.72h.68l1,3.72.16.73h0l.11-.73L46,3.43h.77L45.35,9.12h-.69l-1-3.95-.1-.51h0l-.1.51L42.33,9.12h-.69L40.27,3.43H41Z"/></svg>